G04 This is an RS-274x file exported by *
G04 gerbv version 2.6.1 *
G04 More information is available about gerbv at *
G04 http://gerbv.geda-project.org/ *
G04 --End of header info--*
%MOIN*%
%FSLAX34Y34*%
%IPPOS*%
G04 --Define apertures--*
%ADD10C,0.0039*%
%ADD11C,0.0069*%
%ADD12C,0.0118*%
%ADD13C,0.0004*%
%ADD14C,0.0060*%
%ADD15C,0.0047*%
%ADD16C,0.0197*%
%ADD17C,0.0059*%
G04 --Start main section--*
G54D11*
G01X0046175Y-042238D02*
G01X0046135Y-042251D01*
G01X0046135Y-042251D02*
G01X0046070Y-042251D01*
G01X0046070Y-042251D02*
G01X0046043Y-042238D01*
G01X0046043Y-042238D02*
G01X0046030Y-042224D01*
G01X0046030Y-042224D02*
G01X0046017Y-042198D01*
G01X0046017Y-042198D02*
G01X0046017Y-042172D01*
G01X0046017Y-042172D02*
G01X0046030Y-042146D01*
G01X0046030Y-042146D02*
G01X0046043Y-042133D01*
G01X0046043Y-042133D02*
G01X0046070Y-042119D01*
G01X0046070Y-042119D02*
G01X0046122Y-042106D01*
G01X0046122Y-042106D02*
G01X0046148Y-042093D01*
G01X0046148Y-042093D02*
G01X0046161Y-042080D01*
G01X0046161Y-042080D02*
G01X0046175Y-042054D01*
G01X0046175Y-042054D02*
G01X0046175Y-042028D01*
G01X0046175Y-042028D02*
G01X0046161Y-042001D01*
G01X0046161Y-042001D02*
G01X0046148Y-041988D01*
G01X0046148Y-041988D02*
G01X0046122Y-041975D01*
G01X0046122Y-041975D02*
G01X0046056Y-041975D01*
G01X0046056Y-041975D02*
G01X0046017Y-041988D01*
G01X0045702Y-041962D02*
G01X0045938Y-042316D01*
G01X0045610Y-042251D02*
G01X0045610Y-041975D01*
G01X0045610Y-041975D02*
G01X0045453Y-042251D01*
G01X0045453Y-042251D02*
G01X0045453Y-041975D01*
G01X0045322Y-042224D02*
G01X0045308Y-042238D01*
G01X0045308Y-042238D02*
G01X0045322Y-042251D01*
G01X0045322Y-042251D02*
G01X0045335Y-042238D01*
G01X0045335Y-042238D02*
G01X0045322Y-042224D01*
G01X0045322Y-042224D02*
G01X0045322Y-042251D01*
G01X0045322Y-042080D02*
G01X0045308Y-042093D01*
G01X0045308Y-042093D02*
G01X0045322Y-042106D01*
G01X0045322Y-042106D02*
G01X0045335Y-042093D01*
G01X0045335Y-042093D02*
G01X0045322Y-042080D01*
G01X0045322Y-042080D02*
G01X0045322Y-042106D01*
G01X0044928Y-041975D02*
G01X0044902Y-041975D01*
G01X0044902Y-041975D02*
G01X0044875Y-041988D01*
G01X0044875Y-041988D02*
G01X0044862Y-042001D01*
G01X0044862Y-042001D02*
G01X0044849Y-042028D01*
G01X0044849Y-042028D02*
G01X0044836Y-042080D01*
G01X0044836Y-042080D02*
G01X0044836Y-042146D01*
G01X0044836Y-042146D02*
G01X0044849Y-042198D01*
G01X0044849Y-042198D02*
G01X0044862Y-042224D01*
G01X0044862Y-042224D02*
G01X0044875Y-042238D01*
G01X0044875Y-042238D02*
G01X0044902Y-042251D01*
G01X0044902Y-042251D02*
G01X0044928Y-042251D01*
G01X0044928Y-042251D02*
G01X0044954Y-042238D01*
G01X0044954Y-042238D02*
G01X0044967Y-042224D01*
G01X0044967Y-042224D02*
G01X0044980Y-042198D01*
G01X0044980Y-042198D02*
G01X0044993Y-042146D01*
G01X0044993Y-042146D02*
G01X0044993Y-042080D01*
G01X0044993Y-042080D02*
G01X0044980Y-042028D01*
G01X0044980Y-042028D02*
G01X0044967Y-042001D01*
G01X0044967Y-042001D02*
G01X0044954Y-041988D01*
G01X0044954Y-041988D02*
G01X0044928Y-041975D01*
G01X0044665Y-041975D02*
G01X0044639Y-041975D01*
G01X0044639Y-041975D02*
G01X0044613Y-041988D01*
G01X0044613Y-041988D02*
G01X0044600Y-042001D01*
G01X0044600Y-042001D02*
G01X0044587Y-042028D01*
G01X0044587Y-042028D02*
G01X0044573Y-042080D01*
G01X0044573Y-042080D02*
G01X0044573Y-042146D01*
G01X0044573Y-042146D02*
G01X0044587Y-042198D01*
G01X0044587Y-042198D02*
G01X0044600Y-042224D01*
G01X0044600Y-042224D02*
G01X0044613Y-042238D01*
G01X0044613Y-042238D02*
G01X0044639Y-042251D01*
G01X0044639Y-042251D02*
G01X0044665Y-042251D01*
G01X0044665Y-042251D02*
G01X0044692Y-042238D01*
G01X0044692Y-042238D02*
G01X0044705Y-042224D01*
G01X0044705Y-042224D02*
G01X0044718Y-042198D01*
G01X0044718Y-042198D02*
G01X0044731Y-042146D01*
G01X0044731Y-042146D02*
G01X0044731Y-042080D01*
G01X0044731Y-042080D02*
G01X0044718Y-042028D01*
G01X0044718Y-042028D02*
G01X0044705Y-042001D01*
G01X0044705Y-042001D02*
G01X0044692Y-041988D01*
G01X0044692Y-041988D02*
G01X0044665Y-041975D01*
G01X0044403Y-041975D02*
G01X0044377Y-041975D01*
G01X0044377Y-041975D02*
G01X0044350Y-041988D01*
G01X0044350Y-041988D02*
G01X0044337Y-042001D01*
G01X0044337Y-042001D02*
G01X0044324Y-042028D01*
G01X0044324Y-042028D02*
G01X0044311Y-042080D01*
G01X0044311Y-042080D02*
G01X0044311Y-042146D01*
G01X0044311Y-042146D02*
G01X0044324Y-042198D01*
G01X0044324Y-042198D02*
G01X0044337Y-042224D01*
G01X0044337Y-042224D02*
G01X0044350Y-042238D01*
G01X0044350Y-042238D02*
G01X0044377Y-042251D01*
G01X0044377Y-042251D02*
G01X0044403Y-042251D01*
G01X0044403Y-042251D02*
G01X0044429Y-042238D01*
G01X0044429Y-042238D02*
G01X0044442Y-042224D01*
G01X0044442Y-042224D02*
G01X0044455Y-042198D01*
G01X0044455Y-042198D02*
G01X0044469Y-042146D01*
G01X0044469Y-042146D02*
G01X0044469Y-042080D01*
G01X0044469Y-042080D02*
G01X0044455Y-042028D01*
G01X0044455Y-042028D02*
G01X0044442Y-042001D01*
G01X0044442Y-042001D02*
G01X0044429Y-041988D01*
G01X0044429Y-041988D02*
G01X0044403Y-041975D01*
G01X0044140Y-041975D02*
G01X0044114Y-041975D01*
G01X0044114Y-041975D02*
G01X0044088Y-041988D01*
G01X0044088Y-041988D02*
G01X0044075Y-042001D01*
G01X0044075Y-042001D02*
G01X0044062Y-042028D01*
G01X0044062Y-042028D02*
G01X0044049Y-042080D01*
G01X0044049Y-042080D02*
G01X0044049Y-042146D01*
G01X0044049Y-042146D02*
G01X0044062Y-042198D01*
G01X0044062Y-042198D02*
G01X0044075Y-042224D01*
G01X0044075Y-042224D02*
G01X0044088Y-042238D01*
G01X0044088Y-042238D02*
G01X0044114Y-042251D01*
G01X0044114Y-042251D02*
G01X0044140Y-042251D01*
G01X0044140Y-042251D02*
G01X0044167Y-042238D01*
G01X0044167Y-042238D02*
G01X0044180Y-042224D01*
G01X0044180Y-042224D02*
G01X0044193Y-042198D01*
G01X0044193Y-042198D02*
G01X0044206Y-042146D01*
G01X0044206Y-042146D02*
G01X0044206Y-042080D01*
G01X0044206Y-042080D02*
G01X0044193Y-042028D01*
G01X0044193Y-042028D02*
G01X0044180Y-042001D01*
G01X0044180Y-042001D02*
G01X0044167Y-041988D01*
G01X0044167Y-041988D02*
G01X0044140Y-041975D01*
G01X0043878Y-041975D02*
G01X0043852Y-041975D01*
G01X0043852Y-041975D02*
G01X0043825Y-041988D01*
G01X0043825Y-041988D02*
G01X0043812Y-042001D01*
G01X0043812Y-042001D02*
G01X0043799Y-042028D01*
G01X0043799Y-042028D02*
G01X0043786Y-042080D01*
G01X0043786Y-042080D02*
G01X0043786Y-042146D01*
G01X0043786Y-042146D02*
G01X0043799Y-042198D01*
G01X0043799Y-042198D02*
G01X0043812Y-042224D01*
G01X0043812Y-042224D02*
G01X0043825Y-042238D01*
G01X0043825Y-042238D02*
G01X0043852Y-042251D01*
G01X0043852Y-042251D02*
G01X0043878Y-042251D01*
G01X0043878Y-042251D02*
G01X0043904Y-042238D01*
G01X0043904Y-042238D02*
G01X0043917Y-042224D01*
G01X0043917Y-042224D02*
G01X0043930Y-042198D01*
G01X0043930Y-042198D02*
G01X0043944Y-042146D01*
G01X0043944Y-042146D02*
G01X0043944Y-042080D01*
G01X0043944Y-042080D02*
G01X0043930Y-042028D01*
G01X0043930Y-042028D02*
G01X0043917Y-042001D01*
G01X0043917Y-042001D02*
G01X0043904Y-041988D01*
G01X0043904Y-041988D02*
G01X0043878Y-041975D01*
G01X0043615Y-041975D02*
G01X0043589Y-041975D01*
G01X0043589Y-041975D02*
G01X0043563Y-041988D01*
G01X0043563Y-041988D02*
G01X0043550Y-042001D01*
G01X0043550Y-042001D02*
G01X0043537Y-042028D01*
G01X0043537Y-042028D02*
G01X0043524Y-042080D01*
G01X0043524Y-042080D02*
G01X0043524Y-042146D01*
G01X0043524Y-042146D02*
G01X0043537Y-042198D01*
G01X0043537Y-042198D02*
G01X0043550Y-042224D01*
G01X0043550Y-042224D02*
G01X0043563Y-042238D01*
G01X0043563Y-042238D02*
G01X0043589Y-042251D01*
G01X0043589Y-042251D02*
G01X0043615Y-042251D01*
G01X0043615Y-042251D02*
G01X0043642Y-042238D01*
G01X0043642Y-042238D02*
G01X0043655Y-042224D01*
G01X0043655Y-042224D02*
G01X0043668Y-042198D01*
G01X0043668Y-042198D02*
G01X0043681Y-042146D01*
G01X0043681Y-042146D02*
G01X0043681Y-042080D01*
G01X0043681Y-042080D02*
G01X0043668Y-042028D01*
G01X0043668Y-042028D02*
G01X0043655Y-042001D01*
G01X0043655Y-042001D02*
G01X0043642Y-041988D01*
G01X0043642Y-041988D02*
G01X0043615Y-041975D01*
G01X0043353Y-041975D02*
G01X0043327Y-041975D01*
G01X0043327Y-041975D02*
G01X0043301Y-041988D01*
G01X0043301Y-041988D02*
G01X0043287Y-042001D01*
G01X0043287Y-042001D02*
G01X0043274Y-042028D01*
G01X0043274Y-042028D02*
G01X0043261Y-042080D01*
G01X0043261Y-042080D02*
G01X0043261Y-042146D01*
G01X0043261Y-042146D02*
G01X0043274Y-042198D01*
G01X0043274Y-042198D02*
G01X0043287Y-042224D01*
G01X0043287Y-042224D02*
G01X0043301Y-042238D01*
G01X0043301Y-042238D02*
G01X0043327Y-042251D01*
G01X0043327Y-042251D02*
G01X0043353Y-042251D01*
G01X0043353Y-042251D02*
G01X0043379Y-042238D01*
G01X0043379Y-042238D02*
G01X0043392Y-042224D01*
G01X0043392Y-042224D02*
G01X0043406Y-042198D01*
G01X0043406Y-042198D02*
G01X0043419Y-042146D01*
G01X0043419Y-042146D02*
G01X0043419Y-042080D01*
G01X0043419Y-042080D02*
G01X0043406Y-042028D01*
G01X0043406Y-042028D02*
G01X0043392Y-042001D01*
G01X0043392Y-042001D02*
G01X0043379Y-041988D01*
G01X0043379Y-041988D02*
G01X0043353Y-041975D01*
G01X0043091Y-041975D02*
G01X0043064Y-041975D01*
G01X0043064Y-041975D02*
G01X0043038Y-041988D01*
G01X0043038Y-041988D02*
G01X0043025Y-042001D01*
G01X0043025Y-042001D02*
G01X0043012Y-042028D01*
G01X0043012Y-042028D02*
G01X0042999Y-042080D01*
G01X0042999Y-042080D02*
G01X0042999Y-042146D01*
G01X0042999Y-042146D02*
G01X0043012Y-042198D01*
G01X0043012Y-042198D02*
G01X0043025Y-042224D01*
G01X0043025Y-042224D02*
G01X0043038Y-042238D01*
G01X0043038Y-042238D02*
G01X0043064Y-042251D01*
G01X0043064Y-042251D02*
G01X0043091Y-042251D01*
G01X0043091Y-042251D02*
G01X0043117Y-042238D01*
G01X0043117Y-042238D02*
G01X0043130Y-042224D01*
G01X0043130Y-042224D02*
G01X0043143Y-042198D01*
G01X0043143Y-042198D02*
G01X0043156Y-042146D01*
G01X0043156Y-042146D02*
G01X0043156Y-042080D01*
G01X0043156Y-042080D02*
G01X0043143Y-042028D01*
G01X0043143Y-042028D02*
G01X0043130Y-042001D01*
G01X0043130Y-042001D02*
G01X0043117Y-041988D01*
G01X0043117Y-041988D02*
G01X0043091Y-041975D01*
G54D12*
G01X0045951Y-040917D02*
G01X0045951Y-040523D01*
G01X0045951Y-040579D02*
G01X0045922Y-040551D01*
G01X0045922Y-040551D02*
G01X0045866Y-040523D01*
G01X0045866Y-040523D02*
G01X0045782Y-040523D01*
G01X0045782Y-040523D02*
G01X0045726Y-040551D01*
G01X0045726Y-040551D02*
G01X0045697Y-040607D01*
G01X0045697Y-040607D02*
G01X0045697Y-040917D01*
G01X0045697Y-040607D02*
G01X0045669Y-040551D01*
G01X0045669Y-040551D02*
G01X0045613Y-040523D01*
G01X0045613Y-040523D02*
G01X0045529Y-040523D01*
G01X0045529Y-040523D02*
G01X0045472Y-040551D01*
G01X0045472Y-040551D02*
G01X0045444Y-040607D01*
G01X0045444Y-040607D02*
G01X0045444Y-040917D01*
G01X0044826Y-040861D02*
G01X0044854Y-040889D01*
G01X0044854Y-040889D02*
G01X0044938Y-040917D01*
G01X0044938Y-040917D02*
G01X0044994Y-040917D01*
G01X0044994Y-040917D02*
G01X0045079Y-040889D01*
G01X0045079Y-040889D02*
G01X0045135Y-040832D01*
G01X0045135Y-040832D02*
G01X0045163Y-040776D01*
G01X0045163Y-040776D02*
G01X0045191Y-040664D01*
G01X0045191Y-040664D02*
G01X0045191Y-040579D01*
G01X0045191Y-040579D02*
G01X0045163Y-040467D01*
G01X0045163Y-040467D02*
G01X0045135Y-040411D01*
G01X0045135Y-040411D02*
G01X0045079Y-040354D01*
G01X0045079Y-040354D02*
G01X0044994Y-040326D01*
G01X0044994Y-040326D02*
G01X0044938Y-040326D01*
G01X0044938Y-040326D02*
G01X0044854Y-040354D01*
G01X0044854Y-040354D02*
G01X0044826Y-040382D01*
G01X0044460Y-040326D02*
G01X0044348Y-040326D01*
G01X0044348Y-040326D02*
G01X0044291Y-040354D01*
G01X0044291Y-040354D02*
G01X0044235Y-040411D01*
G01X0044235Y-040411D02*
G01X0044207Y-040523D01*
G01X0044207Y-040523D02*
G01X0044207Y-040720D01*
G01X0044207Y-040720D02*
G01X0044235Y-040832D01*
G01X0044235Y-040832D02*
G01X0044291Y-040889D01*
G01X0044291Y-040889D02*
G01X0044348Y-040917D01*
G01X0044348Y-040917D02*
G01X0044460Y-040917D01*
G01X0044460Y-040917D02*
G01X0044516Y-040889D01*
G01X0044516Y-040889D02*
G01X0044573Y-040832D01*
G01X0044573Y-040832D02*
G01X0044601Y-040720D01*
G01X0044601Y-040720D02*
G01X0044601Y-040523D01*
G01X0044601Y-040523D02*
G01X0044573Y-040411D01*
G01X0044573Y-040411D02*
G01X0044516Y-040354D01*
G01X0044516Y-040354D02*
G01X0044460Y-040326D01*
G01X0043954Y-040917D02*
G01X0043954Y-040326D01*
G01X0043954Y-040326D02*
G01X0043757Y-040748D01*
G01X0043757Y-040748D02*
G01X0043560Y-040326D01*
G01X0043560Y-040326D02*
G01X0043560Y-040917D01*
G01X0043279Y-040692D02*
G01X0042829Y-040692D01*
G01X0042632Y-040326D02*
G01X0042295Y-040326D01*
G01X0042463Y-040917D02*
G01X0042463Y-040326D01*
G01X0042098Y-040917D02*
G01X0042098Y-040326D01*
G01X0041760Y-040917D02*
G01X0042013Y-040579D01*
G01X0041760Y-040326D02*
G01X0042098Y-040664D01*
G01X0041198Y-040917D02*
G01X0041535Y-040917D01*
G01X0041367Y-040917D02*
G01X0041367Y-040326D01*
G01X0041367Y-040326D02*
G01X0041423Y-040411D01*
G01X0041423Y-040411D02*
G01X0041479Y-040467D01*
G01X0041479Y-040467D02*
G01X0041535Y-040495D01*
G01X0040157Y-040861D02*
G01X0040186Y-040889D01*
G01X0040186Y-040889D02*
G01X0040270Y-040917D01*
G01X0040270Y-040917D02*
G01X0040326Y-040917D01*
G01X0040326Y-040917D02*
G01X0040411Y-040889D01*
G01X0040411Y-040889D02*
G01X0040467Y-040832D01*
G01X0040467Y-040832D02*
G01X0040495Y-040776D01*
G01X0040495Y-040776D02*
G01X0040523Y-040664D01*
G01X0040523Y-040664D02*
G01X0040523Y-040579D01*
G01X0040523Y-040579D02*
G01X0040495Y-040467D01*
G01X0040495Y-040467D02*
G01X0040467Y-040411D01*
G01X0040467Y-040411D02*
G01X0040411Y-040354D01*
G01X0040411Y-040354D02*
G01X0040326Y-040326D01*
G01X0040326Y-040326D02*
G01X0040270Y-040326D01*
G01X0040270Y-040326D02*
G01X0040186Y-040354D01*
G01X0040186Y-040354D02*
G01X0040157Y-040382D01*
G01X0039651Y-040917D02*
G01X0039651Y-040607D01*
G01X0039651Y-040607D02*
G01X0039679Y-040551D01*
G01X0039679Y-040551D02*
G01X0039736Y-040523D01*
G01X0039736Y-040523D02*
G01X0039848Y-040523D01*
G01X0039848Y-040523D02*
G01X0039904Y-040551D01*
G01X0039651Y-040889D02*
G01X0039708Y-040917D01*
G01X0039708Y-040917D02*
G01X0039848Y-040917D01*
G01X0039848Y-040917D02*
G01X0039904Y-040889D01*
G01X0039904Y-040889D02*
G01X0039933Y-040832D01*
G01X0039933Y-040832D02*
G01X0039933Y-040776D01*
G01X0039933Y-040776D02*
G01X0039904Y-040720D01*
G01X0039904Y-040720D02*
G01X0039848Y-040692D01*
G01X0039848Y-040692D02*
G01X0039708Y-040692D01*
G01X0039708Y-040692D02*
G01X0039651Y-040664D01*
G01X0039370Y-040917D02*
G01X0039370Y-040523D01*
G01X0039370Y-040636D02*
G01X0039342Y-040579D01*
G01X0039342Y-040579D02*
G01X0039314Y-040551D01*
G01X0039314Y-040551D02*
G01X0039258Y-040523D01*
G01X0039258Y-040523D02*
G01X0039201Y-040523D01*
G01X0039005Y-040917D02*
G01X0039005Y-040523D01*
G01X0039005Y-040636D02*
G01X0038976Y-040579D01*
G01X0038976Y-040579D02*
G01X0038948Y-040551D01*
G01X0038948Y-040551D02*
G01X0038892Y-040523D01*
G01X0038892Y-040523D02*
G01X0038836Y-040523D01*
G01X0038639Y-040917D02*
G01X0038639Y-040523D01*
G01X0038639Y-040326D02*
G01X0038667Y-040354D01*
G01X0038667Y-040354D02*
G01X0038639Y-040382D01*
G01X0038639Y-040382D02*
G01X0038611Y-040354D01*
G01X0038611Y-040354D02*
G01X0038639Y-040326D01*
G01X0038639Y-040326D02*
G01X0038639Y-040382D01*
G01X0038133Y-040889D02*
G01X0038189Y-040917D01*
G01X0038189Y-040917D02*
G01X0038301Y-040917D01*
G01X0038301Y-040917D02*
G01X0038358Y-040889D01*
G01X0038358Y-040889D02*
G01X0038386Y-040832D01*
G01X0038386Y-040832D02*
G01X0038386Y-040607D01*
G01X0038386Y-040607D02*
G01X0038358Y-040551D01*
G01X0038358Y-040551D02*
G01X0038301Y-040523D01*
G01X0038301Y-040523D02*
G01X0038189Y-040523D01*
G01X0038189Y-040523D02*
G01X0038133Y-040551D01*
G01X0038133Y-040551D02*
G01X0038105Y-040607D01*
G01X0038105Y-040607D02*
G01X0038105Y-040664D01*
G01X0038105Y-040664D02*
G01X0038386Y-040720D01*
G01X0037852Y-040917D02*
G01X0037852Y-040523D01*
G01X0037852Y-040636D02*
G01X0037823Y-040579D01*
G01X0037823Y-040579D02*
G01X0037795Y-040551D01*
G01X0037795Y-040551D02*
G01X0037739Y-040523D01*
G01X0037739Y-040523D02*
G01X0037683Y-040523D01*
G01X0036839Y-040607D02*
G01X0036755Y-040636D01*
G01X0036755Y-040636D02*
G01X0036727Y-040664D01*
G01X0036727Y-040664D02*
G01X0036699Y-040720D01*
G01X0036699Y-040720D02*
G01X0036699Y-040804D01*
G01X0036699Y-040804D02*
G01X0036727Y-040861D01*
G01X0036727Y-040861D02*
G01X0036755Y-040889D01*
G01X0036755Y-040889D02*
G01X0036811Y-040917D01*
G01X0036811Y-040917D02*
G01X0037036Y-040917D01*
G01X0037036Y-040917D02*
G01X0037036Y-040326D01*
G01X0037036Y-040326D02*
G01X0036839Y-040326D01*
G01X0036839Y-040326D02*
G01X0036783Y-040354D01*
G01X0036783Y-040354D02*
G01X0036755Y-040382D01*
G01X0036755Y-040382D02*
G01X0036727Y-040439D01*
G01X0036727Y-040439D02*
G01X0036727Y-040495D01*
G01X0036727Y-040495D02*
G01X0036755Y-040551D01*
G01X0036755Y-040551D02*
G01X0036783Y-040579D01*
G01X0036783Y-040579D02*
G01X0036839Y-040607D01*
G01X0036839Y-040607D02*
G01X0037036Y-040607D01*
G01X0036361Y-040917D02*
G01X0036417Y-040889D01*
G01X0036417Y-040889D02*
G01X0036445Y-040861D01*
G01X0036445Y-040861D02*
G01X0036474Y-040804D01*
G01X0036474Y-040804D02*
G01X0036474Y-040636D01*
G01X0036474Y-040636D02*
G01X0036445Y-040579D01*
G01X0036445Y-040579D02*
G01X0036417Y-040551D01*
G01X0036417Y-040551D02*
G01X0036361Y-040523D01*
G01X0036361Y-040523D02*
G01X0036277Y-040523D01*
G01X0036277Y-040523D02*
G01X0036220Y-040551D01*
G01X0036220Y-040551D02*
G01X0036192Y-040579D01*
G01X0036192Y-040579D02*
G01X0036164Y-040636D01*
G01X0036164Y-040636D02*
G01X0036164Y-040804D01*
G01X0036164Y-040804D02*
G01X0036192Y-040861D01*
G01X0036192Y-040861D02*
G01X0036220Y-040889D01*
G01X0036220Y-040889D02*
G01X0036277Y-040917D01*
G01X0036277Y-040917D02*
G01X0036361Y-040917D01*
G01X0035658Y-040917D02*
G01X0035658Y-040607D01*
G01X0035658Y-040607D02*
G01X0035686Y-040551D01*
G01X0035686Y-040551D02*
G01X0035742Y-040523D01*
G01X0035742Y-040523D02*
G01X0035855Y-040523D01*
G01X0035855Y-040523D02*
G01X0035911Y-040551D01*
G01X0035658Y-040889D02*
G01X0035714Y-040917D01*
G01X0035714Y-040917D02*
G01X0035855Y-040917D01*
G01X0035855Y-040917D02*
G01X0035911Y-040889D01*
G01X0035911Y-040889D02*
G01X0035939Y-040832D01*
G01X0035939Y-040832D02*
G01X0035939Y-040776D01*
G01X0035939Y-040776D02*
G01X0035911Y-040720D01*
G01X0035911Y-040720D02*
G01X0035855Y-040692D01*
G01X0035855Y-040692D02*
G01X0035714Y-040692D01*
G01X0035714Y-040692D02*
G01X0035658Y-040664D01*
G01X0035377Y-040917D02*
G01X0035377Y-040523D01*
G01X0035377Y-040636D02*
G01X0035349Y-040579D01*
G01X0035349Y-040579D02*
G01X0035321Y-040551D01*
G01X0035321Y-040551D02*
G01X0035264Y-040523D01*
G01X0035264Y-040523D02*
G01X0035208Y-040523D01*
G01X0034758Y-040917D02*
G01X0034758Y-040326D01*
G01X0034758Y-040889D02*
G01X0034814Y-040917D01*
G01X0034814Y-040917D02*
G01X0034927Y-040917D01*
G01X0034927Y-040917D02*
G01X0034983Y-040889D01*
G01X0034983Y-040889D02*
G01X0035011Y-040861D01*
G01X0035011Y-040861D02*
G01X0035039Y-040804D01*
G01X0035039Y-040804D02*
G01X0035039Y-040636D01*
G01X0035039Y-040636D02*
G01X0035011Y-040579D01*
G01X0035011Y-040579D02*
G01X0034983Y-040551D01*
G01X0034983Y-040551D02*
G01X0034927Y-040523D01*
G01X0034927Y-040523D02*
G01X0034814Y-040523D01*
G01X0034814Y-040523D02*
G01X0034758Y-040551D01*
G54D13*
G36*
G01X0054828Y-036608D02*
G01X0054822Y-037409D01*
G01X0053629Y-037409D01*
G01X0053629Y-037807D01*
G01X0055220Y-037807D01*
G01X0055220Y-035807D01*
G01X0054834Y-035807D01*
G01X0054828Y-036608D01*
G01X0054828Y-036608D01*
G37*
G01X0054828Y-036608D02*
G01X0054822Y-037409D01*
G01X0054822Y-037409D02*
G01X0053629Y-037409D01*
G01X0053629Y-037409D02*
G01X0053629Y-037807D01*
G01X0053629Y-037807D02*
G01X0055220Y-037807D01*
G01X0055220Y-037807D02*
G01X0055220Y-035807D01*
G01X0055220Y-035807D02*
G01X0054834Y-035807D01*
G01X0054834Y-035807D02*
G01X0054828Y-036608D01*
G36*
G01X0052015Y-037011D02*
G01X0052835Y-037011D01*
G01X0052828Y-037210D01*
G01X0052822Y-037409D01*
G01X0052220Y-037414D01*
G01X0051617Y-037418D01*
G01X0051611Y-037612D01*
G01X0051604Y-037807D01*
G01X0053220Y-037807D01*
G01X0053220Y-036602D01*
G01X0052015Y-036602D01*
G01X0052015Y-037011D01*
G01X0052015Y-037011D01*
G37*
G01X0052015Y-037011D02*
G01X0052835Y-037011D01*
G01X0052835Y-037011D02*
G01X0052828Y-037210D01*
G01X0052828Y-037210D02*
G01X0052822Y-037409D01*
G01X0052822Y-037409D02*
G01X0052220Y-037414D01*
G01X0052220Y-037414D02*
G01X0051617Y-037418D01*
G01X0051617Y-037418D02*
G01X0051611Y-037612D01*
G01X0051611Y-037612D02*
G01X0051604Y-037807D01*
G01X0051604Y-037807D02*
G01X0053220Y-037807D01*
G01X0053220Y-037807D02*
G01X0053220Y-036602D01*
G01X0053220Y-036602D02*
G01X0052015Y-036602D01*
G01X0052015Y-036602D02*
G01X0052015Y-037011D01*
G36*
G01X0050612Y-036607D02*
G01X0050413Y-036614D01*
G01X0050401Y-037807D01*
G01X0050810Y-037807D01*
G01X0050810Y-036600D01*
G01X0050612Y-036607D01*
G01X0050612Y-036607D01*
G37*
G01X0050612Y-036607D02*
G01X0050413Y-036614D01*
G01X0050413Y-036614D02*
G01X0050401Y-037807D01*
G01X0050401Y-037807D02*
G01X0050810Y-037807D01*
G01X0050810Y-037807D02*
G01X0050810Y-036600D01*
G01X0050810Y-036600D02*
G01X0050612Y-036607D01*
G36*
G01X0048857Y-036603D02*
G01X0048700Y-036607D01*
G01X0048576Y-036615D01*
G01X0048478Y-036628D01*
G01X0048400Y-036647D01*
G01X0048335Y-036674D01*
G01X0048277Y-036710D01*
G01X0048220Y-036756D01*
G01X0048213Y-036761D01*
G01X0048107Y-036882D01*
G01X0048039Y-037018D01*
G01X0048008Y-037162D01*
G01X0048014Y-037307D01*
G01X0048054Y-037446D01*
G01X0048128Y-037573D01*
G01X0048235Y-037680D01*
G01X0048372Y-037762D01*
G01X0048409Y-037777D01*
G01X0048461Y-037787D01*
G01X0048559Y-037795D01*
G01X0048699Y-037800D01*
G01X0048883Y-037804D01*
G01X0049043Y-037805D01*
G01X0049606Y-037807D01*
G01X0049606Y-037420D01*
G01X0049105Y-037420D01*
G01X0048916Y-037419D01*
G01X0048766Y-037416D01*
G01X0048652Y-037409D01*
G01X0048567Y-037397D01*
G01X0048507Y-037380D01*
G01X0048466Y-037357D01*
G01X0048439Y-037326D01*
G01X0048424Y-037295D01*
G01X0048403Y-037210D01*
G01X0048418Y-037142D01*
G01X0048468Y-037078D01*
G01X0048497Y-037050D01*
G01X0048525Y-037031D01*
G01X0048562Y-037019D01*
G01X0048616Y-037014D01*
G01X0048697Y-037012D01*
G01X0048805Y-037011D01*
G01X0048991Y-037006D01*
G01X0049140Y-036986D01*
G01X0049259Y-036951D01*
G01X0049357Y-036897D01*
G01X0049441Y-036821D01*
G01X0049494Y-036755D01*
G01X0049529Y-036707D01*
G01X0049551Y-036671D01*
G01X0049556Y-036644D01*
G01X0049540Y-036625D01*
G01X0049500Y-036613D01*
G01X0049430Y-036606D01*
G01X0049326Y-036603D01*
G01X0049184Y-036602D01*
G01X0049053Y-036602D01*
G01X0048857Y-036603D01*
G01X0048857Y-036603D01*
G37*
G01X0048857Y-036603D02*
G01X0048700Y-036607D01*
G01X0048700Y-036607D02*
G01X0048576Y-036615D01*
G01X0048576Y-036615D02*
G01X0048478Y-036628D01*
G01X0048478Y-036628D02*
G01X0048400Y-036647D01*
G01X0048400Y-036647D02*
G01X0048335Y-036674D01*
G01X0048335Y-036674D02*
G01X0048277Y-036710D01*
G01X0048277Y-036710D02*
G01X0048220Y-036756D01*
G01X0048220Y-036756D02*
G01X0048213Y-036761D01*
G01X0048213Y-036761D02*
G01X0048107Y-036882D01*
G01X0048107Y-036882D02*
G01X0048039Y-037018D01*
G01X0048039Y-037018D02*
G01X0048008Y-037162D01*
G01X0048008Y-037162D02*
G01X0048014Y-037307D01*
G01X0048014Y-037307D02*
G01X0048054Y-037446D01*
G01X0048054Y-037446D02*
G01X0048128Y-037573D01*
G01X0048128Y-037573D02*
G01X0048235Y-037680D01*
G01X0048235Y-037680D02*
G01X0048372Y-037762D01*
G01X0048372Y-037762D02*
G01X0048409Y-037777D01*
G01X0048409Y-037777D02*
G01X0048461Y-037787D01*
G01X0048461Y-037787D02*
G01X0048559Y-037795D01*
G01X0048559Y-037795D02*
G01X0048699Y-037800D01*
G01X0048699Y-037800D02*
G01X0048883Y-037804D01*
G01X0048883Y-037804D02*
G01X0049043Y-037805D01*
G01X0049043Y-037805D02*
G01X0049606Y-037807D01*
G01X0049606Y-037807D02*
G01X0049606Y-037420D01*
G01X0049606Y-037420D02*
G01X0049105Y-037420D01*
G01X0049105Y-037420D02*
G01X0048916Y-037419D01*
G01X0048916Y-037419D02*
G01X0048766Y-037416D01*
G01X0048766Y-037416D02*
G01X0048652Y-037409D01*
G01X0048652Y-037409D02*
G01X0048567Y-037397D01*
G01X0048567Y-037397D02*
G01X0048507Y-037380D01*
G01X0048507Y-037380D02*
G01X0048466Y-037357D01*
G01X0048466Y-037357D02*
G01X0048439Y-037326D01*
G01X0048439Y-037326D02*
G01X0048424Y-037295D01*
G01X0048424Y-037295D02*
G01X0048403Y-037210D01*
G01X0048403Y-037210D02*
G01X0048418Y-037142D01*
G01X0048418Y-037142D02*
G01X0048468Y-037078D01*
G01X0048468Y-037078D02*
G01X0048497Y-037050D01*
G01X0048497Y-037050D02*
G01X0048525Y-037031D01*
G01X0048525Y-037031D02*
G01X0048562Y-037019D01*
G01X0048562Y-037019D02*
G01X0048616Y-037014D01*
G01X0048616Y-037014D02*
G01X0048697Y-037012D01*
G01X0048697Y-037012D02*
G01X0048805Y-037011D01*
G01X0048805Y-037011D02*
G01X0048991Y-037006D01*
G01X0048991Y-037006D02*
G01X0049140Y-036986D01*
G01X0049140Y-036986D02*
G01X0049259Y-036951D01*
G01X0049259Y-036951D02*
G01X0049357Y-036897D01*
G01X0049357Y-036897D02*
G01X0049441Y-036821D01*
G01X0049441Y-036821D02*
G01X0049494Y-036755D01*
G01X0049494Y-036755D02*
G01X0049529Y-036707D01*
G01X0049529Y-036707D02*
G01X0049551Y-036671D01*
G01X0049551Y-036671D02*
G01X0049556Y-036644D01*
G01X0049556Y-036644D02*
G01X0049540Y-036625D01*
G01X0049540Y-036625D02*
G01X0049500Y-036613D01*
G01X0049500Y-036613D02*
G01X0049430Y-036606D01*
G01X0049430Y-036606D02*
G01X0049326Y-036603D01*
G01X0049326Y-036603D02*
G01X0049184Y-036602D01*
G01X0049184Y-036602D02*
G01X0049053Y-036602D01*
G01X0049053Y-036602D02*
G01X0048857Y-036603D01*
G36*
G01X0045778Y-037256D02*
G01X0045730Y-037401D01*
G01X0045687Y-037532D01*
G01X0045651Y-037643D01*
G01X0045625Y-037726D01*
G01X0045609Y-037777D01*
G01X0045606Y-037790D01*
G01X0045626Y-037800D01*
G01X0045680Y-037806D01*
G01X0045753Y-037808D01*
G01X0045835Y-037806D01*
G01X0045912Y-037800D01*
G01X0045972Y-037792D01*
G01X0046003Y-037780D01*
G01X0046004Y-037778D01*
G01X0046015Y-037749D01*
G01X0046037Y-037683D01*
G01X0046069Y-037589D01*
G01X0046107Y-037473D01*
G01X0046151Y-037344D01*
G01X0046152Y-037341D01*
G01X0046201Y-037196D01*
G01X0046236Y-037087D01*
G01X0046257Y-037008D01*
G01X0046262Y-036953D01*
G01X0046252Y-036913D01*
G01X0046223Y-036883D01*
G01X0046177Y-036854D01*
G01X0046112Y-036822D01*
G01X0046079Y-036805D01*
G01X0045950Y-036740D01*
G01X0045778Y-037256D01*
G01X0045778Y-037256D01*
G37*
G01X0045778Y-037256D02*
G01X0045730Y-037401D01*
G01X0045730Y-037401D02*
G01X0045687Y-037532D01*
G01X0045687Y-037532D02*
G01X0045651Y-037643D01*
G01X0045651Y-037643D02*
G01X0045625Y-037726D01*
G01X0045625Y-037726D02*
G01X0045609Y-037777D01*
G01X0045609Y-037777D02*
G01X0045606Y-037790D01*
G01X0045606Y-037790D02*
G01X0045626Y-037800D01*
G01X0045626Y-037800D02*
G01X0045680Y-037806D01*
G01X0045680Y-037806D02*
G01X0045753Y-037808D01*
G01X0045753Y-037808D02*
G01X0045835Y-037806D01*
G01X0045835Y-037806D02*
G01X0045912Y-037800D01*
G01X0045912Y-037800D02*
G01X0045972Y-037792D01*
G01X0045972Y-037792D02*
G01X0046003Y-037780D01*
G01X0046003Y-037780D02*
G01X0046004Y-037778D01*
G01X0046004Y-037778D02*
G01X0046015Y-037749D01*
G01X0046015Y-037749D02*
G01X0046037Y-037683D01*
G01X0046037Y-037683D02*
G01X0046069Y-037589D01*
G01X0046069Y-037589D02*
G01X0046107Y-037473D01*
G01X0046107Y-037473D02*
G01X0046151Y-037344D01*
G01X0046151Y-037344D02*
G01X0046152Y-037341D01*
G01X0046152Y-037341D02*
G01X0046201Y-037196D01*
G01X0046201Y-037196D02*
G01X0046236Y-037087D01*
G01X0046236Y-037087D02*
G01X0046257Y-037008D01*
G01X0046257Y-037008D02*
G01X0046262Y-036953D01*
G01X0046262Y-036953D02*
G01X0046252Y-036913D01*
G01X0046252Y-036913D02*
G01X0046223Y-036883D01*
G01X0046223Y-036883D02*
G01X0046177Y-036854D01*
G01X0046177Y-036854D02*
G01X0046112Y-036822D01*
G01X0046112Y-036822D02*
G01X0046079Y-036805D01*
G01X0046079Y-036805D02*
G01X0045950Y-036740D01*
G01X0045950Y-036740D02*
G01X0045778Y-037256D01*
G36*
G01X0046442Y-036103D02*
G01X0046548Y-036160D01*
G01X0046658Y-036226D01*
G01X0046752Y-036288D01*
G01X0046763Y-036296D01*
G01X0046902Y-036398D01*
G01X0053220Y-036398D01*
G01X0053220Y-036011D01*
G01X0046260Y-036011D01*
G01X0046442Y-036103D01*
G01X0046442Y-036103D01*
G37*
G01X0046442Y-036103D02*
G01X0046548Y-036160D01*
G01X0046548Y-036160D02*
G01X0046658Y-036226D01*
G01X0046658Y-036226D02*
G01X0046752Y-036288D01*
G01X0046752Y-036288D02*
G01X0046763Y-036296D01*
G01X0046763Y-036296D02*
G01X0046902Y-036398D01*
G01X0046902Y-036398D02*
G01X0053220Y-036398D01*
G01X0053220Y-036398D02*
G01X0053220Y-036011D01*
G01X0053220Y-036011D02*
G01X0046260Y-036011D01*
G01X0046260Y-036011D02*
G01X0046442Y-036103D01*
G54D14*
G01X0061567Y-016258D02*
G75*
G03X0061567Y-016258I-000150J0000000D01*
G54D15*
G01X0052679Y-042858D02*
G01X0053348Y-042858D01*
G01X0053348Y-042858D02*
G01X0053348Y-043862D01*
G01X0052679Y-042858D02*
G01X0052679Y-043862D01*
G01X0055289Y-044965D02*
G01X0055289Y-044571D01*
G01X0054754Y-044571D02*
G01X0054754Y-044965D01*
G01X0054335Y-044925D02*
G01X0054335Y-044531D01*
G01X0053799Y-044531D02*
G01X0053799Y-044925D01*
G01X0056461Y-044965D02*
G01X0056461Y-044571D01*
G01X0055925Y-044571D02*
G01X0055925Y-044965D01*
G01X0066094Y-031531D02*
G01X0066094Y-032004D01*
G01X0066787Y-032004D02*
G01X0066787Y-031531D01*
G54D16*
G01X0065787Y-021339D02*
G01X0065787Y-033976D01*
G01X0065630Y-034134D02*
G01X0061417Y-034134D01*
G01X0061260Y-033976D02*
G01X0061260Y-021339D01*
G01X0061417Y-021181D02*
G01X0065630Y-021181D01*
G54D15*
G01X0034281Y-010730D02*
G01X0034675Y-010730D01*
G01X0034675Y-010195D02*
G01X0034281Y-010195D01*
G01X0035000Y-013171D02*
G01X0035394Y-013171D01*
G01X0035394Y-012636D02*
G01X0035000Y-012636D01*
G01X0035010Y-014638D02*
G01X0035404Y-014638D01*
G01X0035404Y-014102D02*
G01X0035010Y-014102D01*
G54D17*
G01X0052562Y-043148D02*
G01X0052168Y-043148D01*
G01X0052168Y-043148D02*
G01X0052168Y-043242D01*
G01X0052168Y-043242D02*
G01X0052187Y-043298D01*
G01X0052187Y-043298D02*
G01X0052225Y-043336D01*
G01X0052225Y-043336D02*
G01X0052262Y-043355D01*
G01X0052262Y-043355D02*
G01X0052337Y-043373D01*
G01X0052337Y-043373D02*
G01X0052393Y-043373D01*
G01X0052393Y-043373D02*
G01X0052468Y-043355D01*
G01X0052468Y-043355D02*
G01X0052506Y-043336D01*
G01X0052506Y-043336D02*
G01X0052543Y-043298D01*
G01X0052543Y-043298D02*
G01X0052562Y-043242D01*
G01X0052562Y-043242D02*
G01X0052562Y-043148D01*
G01X0052168Y-043730D02*
G01X0052168Y-043542D01*
G01X0052168Y-043542D02*
G01X0052356Y-043523D01*
G01X0052356Y-043523D02*
G01X0052337Y-043542D01*
G01X0052337Y-043542D02*
G01X0052318Y-043580D01*
G01X0052318Y-043580D02*
G01X0052318Y-043673D01*
G01X0052318Y-043673D02*
G01X0052337Y-043711D01*
G01X0052337Y-043711D02*
G01X0052356Y-043730D01*
G01X0052356Y-043730D02*
G01X0052393Y-043748D01*
G01X0052393Y-043748D02*
G01X0052487Y-043748D01*
G01X0052487Y-043748D02*
G01X0052524Y-043730D01*
G01X0052524Y-043730D02*
G01X0052543Y-043711D01*
G01X0052543Y-043711D02*
G01X0052562Y-043673D01*
G01X0052562Y-043673D02*
G01X0052562Y-043580D01*
G01X0052562Y-043580D02*
G01X0052543Y-043542D01*
G01X0052543Y-043542D02*
G01X0052524Y-043523D01*
G01X0055190Y-043412D02*
G01X0055002Y-043281D01*
G01X0055190Y-043187D02*
G01X0054796Y-043187D01*
G01X0054796Y-043187D02*
G01X0054796Y-043337D01*
G01X0054796Y-043337D02*
G01X0054815Y-043375D01*
G01X0054815Y-043375D02*
G01X0054834Y-043394D01*
G01X0054834Y-043394D02*
G01X0054871Y-043412D01*
G01X0054871Y-043412D02*
G01X0054927Y-043412D01*
G01X0054927Y-043412D02*
G01X0054965Y-043394D01*
G01X0054965Y-043394D02*
G01X0054984Y-043375D01*
G01X0054984Y-043375D02*
G01X0055002Y-043337D01*
G01X0055002Y-043337D02*
G01X0055002Y-043187D01*
G01X0054834Y-043562D02*
G01X0054815Y-043581D01*
G01X0054815Y-043581D02*
G01X0054796Y-043618D01*
G01X0054796Y-043618D02*
G01X0054796Y-043712D01*
G01X0054796Y-043712D02*
G01X0054815Y-043750D01*
G01X0054815Y-043750D02*
G01X0054834Y-043768D01*
G01X0054834Y-043768D02*
G01X0054871Y-043787D01*
G01X0054871Y-043787D02*
G01X0054909Y-043787D01*
G01X0054909Y-043787D02*
G01X0054965Y-043768D01*
G01X0054965Y-043768D02*
G01X0055190Y-043543D01*
G01X0055190Y-043543D02*
G01X0055190Y-043787D01*
G01X0054796Y-043918D02*
G01X0054796Y-044162D01*
G01X0054796Y-044162D02*
G01X0054946Y-044031D01*
G01X0054946Y-044031D02*
G01X0054946Y-044087D01*
G01X0054946Y-044087D02*
G01X0054965Y-044125D01*
G01X0054965Y-044125D02*
G01X0054984Y-044143D01*
G01X0054984Y-044143D02*
G01X0055021Y-044162D01*
G01X0055021Y-044162D02*
G01X0055115Y-044162D01*
G01X0055115Y-044162D02*
G01X0055152Y-044143D01*
G01X0055152Y-044143D02*
G01X0055171Y-044125D01*
G01X0055171Y-044125D02*
G01X0055190Y-044087D01*
G01X0055190Y-044087D02*
G01X0055190Y-043975D01*
G01X0055190Y-043975D02*
G01X0055171Y-043937D01*
G01X0055171Y-043937D02*
G01X0055152Y-043918D01*
G01X0054235Y-043412D02*
G01X0054048Y-043281D01*
G01X0054235Y-043187D02*
G01X0053841Y-043187D01*
G01X0053841Y-043187D02*
G01X0053841Y-043337D01*
G01X0053841Y-043337D02*
G01X0053860Y-043375D01*
G01X0053860Y-043375D02*
G01X0053879Y-043394D01*
G01X0053879Y-043394D02*
G01X0053916Y-043412D01*
G01X0053916Y-043412D02*
G01X0053973Y-043412D01*
G01X0053973Y-043412D02*
G01X0054010Y-043394D01*
G01X0054010Y-043394D02*
G01X0054029Y-043375D01*
G01X0054029Y-043375D02*
G01X0054048Y-043337D01*
G01X0054048Y-043337D02*
G01X0054048Y-043187D01*
G01X0053879Y-043562D02*
G01X0053860Y-043581D01*
G01X0053860Y-043581D02*
G01X0053841Y-043618D01*
G01X0053841Y-043618D02*
G01X0053841Y-043712D01*
G01X0053841Y-043712D02*
G01X0053860Y-043750D01*
G01X0053860Y-043750D02*
G01X0053879Y-043768D01*
G01X0053879Y-043768D02*
G01X0053916Y-043787D01*
G01X0053916Y-043787D02*
G01X0053954Y-043787D01*
G01X0053954Y-043787D02*
G01X0054010Y-043768D01*
G01X0054010Y-043768D02*
G01X0054235Y-043543D01*
G01X0054235Y-043543D02*
G01X0054235Y-043787D01*
G01X0053973Y-044125D02*
G01X0054235Y-044125D01*
G01X0053823Y-044031D02*
G01X0054104Y-043937D01*
G01X0054104Y-043937D02*
G01X0054104Y-044181D01*
G01X0056381Y-043452D02*
G01X0056193Y-043320D01*
G01X0056381Y-043227D02*
G01X0055987Y-043227D01*
G01X0055987Y-043227D02*
G01X0055987Y-043377D01*
G01X0055987Y-043377D02*
G01X0056006Y-043414D01*
G01X0056006Y-043414D02*
G01X0056025Y-043433D01*
G01X0056025Y-043433D02*
G01X0056062Y-043452D01*
G01X0056062Y-043452D02*
G01X0056118Y-043452D01*
G01X0056118Y-043452D02*
G01X0056156Y-043433D01*
G01X0056156Y-043433D02*
G01X0056175Y-043414D01*
G01X0056175Y-043414D02*
G01X0056193Y-043377D01*
G01X0056193Y-043377D02*
G01X0056193Y-043227D01*
G01X0056025Y-043602D02*
G01X0056006Y-043620D01*
G01X0056006Y-043620D02*
G01X0055987Y-043658D01*
G01X0055987Y-043658D02*
G01X0055987Y-043752D01*
G01X0055987Y-043752D02*
G01X0056006Y-043789D01*
G01X0056006Y-043789D02*
G01X0056025Y-043808D01*
G01X0056025Y-043808D02*
G01X0056062Y-043827D01*
G01X0056062Y-043827D02*
G01X0056100Y-043827D01*
G01X0056100Y-043827D02*
G01X0056156Y-043808D01*
G01X0056156Y-043808D02*
G01X0056381Y-043583D01*
G01X0056381Y-043583D02*
G01X0056381Y-043827D01*
G01X0055987Y-044183D02*
G01X0055987Y-043995D01*
G01X0055987Y-043995D02*
G01X0056175Y-043977D01*
G01X0056175Y-043977D02*
G01X0056156Y-043995D01*
G01X0056156Y-043995D02*
G01X0056137Y-044033D01*
G01X0056137Y-044033D02*
G01X0056137Y-044127D01*
G01X0056137Y-044127D02*
G01X0056156Y-044164D01*
G01X0056156Y-044164D02*
G01X0056175Y-044183D01*
G01X0056175Y-044183D02*
G01X0056212Y-044202D01*
G01X0056212Y-044202D02*
G01X0056306Y-044202D01*
G01X0056306Y-044202D02*
G01X0056343Y-044183D01*
G01X0056343Y-044183D02*
G01X0056362Y-044164D01*
G01X0056362Y-044164D02*
G01X0056381Y-044127D01*
G01X0056381Y-044127D02*
G01X0056381Y-044033D01*
G01X0056381Y-044033D02*
G01X0056362Y-043995D01*
G01X0056362Y-043995D02*
G01X0056343Y-043977D01*
G01X0067269Y-031515D02*
G01X0067081Y-031383D01*
G01X0067269Y-031290D02*
G01X0066875Y-031290D01*
G01X0066875Y-031290D02*
G01X0066875Y-031440D01*
G01X0066875Y-031440D02*
G01X0066894Y-031477D01*
G01X0066894Y-031477D02*
G01X0066912Y-031496D01*
G01X0066912Y-031496D02*
G01X0066950Y-031515D01*
G01X0066950Y-031515D02*
G01X0067006Y-031515D01*
G01X0067006Y-031515D02*
G01X0067044Y-031496D01*
G01X0067044Y-031496D02*
G01X0067062Y-031477D01*
G01X0067062Y-031477D02*
G01X0067081Y-031440D01*
G01X0067081Y-031440D02*
G01X0067081Y-031290D01*
G01X0066875Y-031646D02*
G01X0066875Y-031890D01*
G01X0066875Y-031890D02*
G01X0067025Y-031758D01*
G01X0067025Y-031758D02*
G01X0067025Y-031815D01*
G01X0067025Y-031815D02*
G01X0067044Y-031852D01*
G01X0067044Y-031852D02*
G01X0067062Y-031871D01*
G01X0067062Y-031871D02*
G01X0067100Y-031890D01*
G01X0067100Y-031890D02*
G01X0067194Y-031890D01*
G01X0067194Y-031890D02*
G01X0067231Y-031871D01*
G01X0067231Y-031871D02*
G01X0067250Y-031852D01*
G01X0067250Y-031852D02*
G01X0067269Y-031815D01*
G01X0067269Y-031815D02*
G01X0067269Y-031702D01*
G01X0067269Y-031702D02*
G01X0067250Y-031665D01*
G01X0067250Y-031665D02*
G01X0067231Y-031646D01*
G01X0066912Y-032040D02*
G01X0066894Y-032058D01*
G01X0066894Y-032058D02*
G01X0066875Y-032096D01*
G01X0066875Y-032096D02*
G01X0066875Y-032190D01*
G01X0066875Y-032190D02*
G01X0066894Y-032227D01*
G01X0066894Y-032227D02*
G01X0066912Y-032246D01*
G01X0066912Y-032246D02*
G01X0066950Y-032265D01*
G01X0066950Y-032265D02*
G01X0066987Y-032265D01*
G01X0066987Y-032265D02*
G01X0067044Y-032246D01*
G01X0067044Y-032246D02*
G01X0067269Y-032021D01*
G01X0067269Y-032021D02*
G01X0067269Y-032265D01*
G01X0067002Y-021368D02*
G01X0067002Y-021854D01*
G01X0067002Y-021854D02*
G01X0066974Y-021911D01*
G01X0066974Y-021911D02*
G01X0066945Y-021940D01*
G01X0066945Y-021940D02*
G01X0066888Y-021968D01*
G01X0066888Y-021968D02*
G01X0066774Y-021968D01*
G01X0066774Y-021968D02*
G01X0066717Y-021940D01*
G01X0066717Y-021940D02*
G01X0066688Y-021911D01*
G01X0066688Y-021911D02*
G01X0066660Y-021854D01*
G01X0066660Y-021854D02*
G01X0066660Y-021368D01*
G01X0066345Y-021968D02*
G01X0066231Y-021968D01*
G01X0066231Y-021968D02*
G01X0066174Y-021940D01*
G01X0066174Y-021940D02*
G01X0066145Y-021911D01*
G01X0066145Y-021911D02*
G01X0066088Y-021825D01*
G01X0066088Y-021825D02*
G01X0066060Y-021711D01*
G01X0066060Y-021711D02*
G01X0066060Y-021483D01*
G01X0066060Y-021483D02*
G01X0066088Y-021425D01*
G01X0066088Y-021425D02*
G01X0066117Y-021397D01*
G01X0066117Y-021397D02*
G01X0066174Y-021368D01*
G01X0066174Y-021368D02*
G01X0066288Y-021368D01*
G01X0066288Y-021368D02*
G01X0066345Y-021397D01*
G01X0066345Y-021397D02*
G01X0066374Y-021425D01*
G01X0066374Y-021425D02*
G01X0066402Y-021483D01*
G01X0066402Y-021483D02*
G01X0066402Y-021625D01*
G01X0066402Y-021625D02*
G01X0066374Y-021683D01*
G01X0066374Y-021683D02*
G01X0066345Y-021711D01*
G01X0066345Y-021711D02*
G01X0066288Y-021740D01*
G01X0066288Y-021740D02*
G01X0066174Y-021740D01*
G01X0066174Y-021740D02*
G01X0066117Y-021711D01*
G01X0066117Y-021711D02*
G01X0066088Y-021683D01*
G01X0066088Y-021683D02*
G01X0066060Y-021625D01*
G01X0034731Y-010109D02*
G01X0034863Y-009922D01*
G01X0034956Y-010109D02*
G01X0034956Y-009716D01*
G01X0034956Y-009716D02*
G01X0034806Y-009716D01*
G01X0034806Y-009716D02*
G01X0034769Y-009734D01*
G01X0034769Y-009734D02*
G01X0034750Y-009753D01*
G01X0034750Y-009753D02*
G01X0034731Y-009790D01*
G01X0034731Y-009790D02*
G01X0034731Y-009847D01*
G01X0034731Y-009847D02*
G01X0034750Y-009884D01*
G01X0034750Y-009884D02*
G01X0034769Y-009903D01*
G01X0034769Y-009903D02*
G01X0034806Y-009922D01*
G01X0034806Y-009922D02*
G01X0034956Y-009922D01*
G01X0034356Y-010109D02*
G01X0034581Y-010109D01*
G01X0034469Y-010109D02*
G01X0034469Y-009716D01*
G01X0034469Y-009716D02*
G01X0034506Y-009772D01*
G01X0034506Y-009772D02*
G01X0034544Y-009809D01*
G01X0034544Y-009809D02*
G01X0034581Y-009828D01*
G01X0033982Y-010109D02*
G01X0034207Y-010109D01*
G01X0034094Y-010109D02*
G01X0034094Y-009716D01*
G01X0034094Y-009716D02*
G01X0034132Y-009772D01*
G01X0034132Y-009772D02*
G01X0034169Y-009809D01*
G01X0034169Y-009809D02*
G01X0034207Y-009828D01*
G01X0036483Y-013082D02*
G01X0036615Y-012894D01*
G01X0036708Y-013082D02*
G01X0036708Y-012688D01*
G01X0036708Y-012688D02*
G01X0036558Y-012688D01*
G01X0036558Y-012688D02*
G01X0036521Y-012707D01*
G01X0036521Y-012707D02*
G01X0036502Y-012725D01*
G01X0036502Y-012725D02*
G01X0036483Y-012763D01*
G01X0036483Y-012763D02*
G01X0036483Y-012819D01*
G01X0036483Y-012819D02*
G01X0036502Y-012857D01*
G01X0036502Y-012857D02*
G01X0036521Y-012875D01*
G01X0036521Y-012875D02*
G01X0036558Y-012894D01*
G01X0036558Y-012894D02*
G01X0036708Y-012894D01*
G01X0036108Y-013082D02*
G01X0036333Y-013082D01*
G01X0036221Y-013082D02*
G01X0036221Y-012688D01*
G01X0036221Y-012688D02*
G01X0036258Y-012744D01*
G01X0036258Y-012744D02*
G01X0036296Y-012782D01*
G01X0036296Y-012782D02*
G01X0036333Y-012800D01*
G01X0035958Y-012725D02*
G01X0035940Y-012707D01*
G01X0035940Y-012707D02*
G01X0035902Y-012688D01*
G01X0035902Y-012688D02*
G01X0035808Y-012688D01*
G01X0035808Y-012688D02*
G01X0035771Y-012707D01*
G01X0035771Y-012707D02*
G01X0035752Y-012725D01*
G01X0035752Y-012725D02*
G01X0035734Y-012763D01*
G01X0035734Y-012763D02*
G01X0035734Y-012800D01*
G01X0035734Y-012800D02*
G01X0035752Y-012857D01*
G01X0035752Y-012857D02*
G01X0035977Y-013082D01*
G01X0035977Y-013082D02*
G01X0035734Y-013082D01*
G01X0036513Y-014558D02*
G01X0036644Y-014371D01*
G01X0036738Y-014558D02*
G01X0036738Y-014164D01*
G01X0036738Y-014164D02*
G01X0036588Y-014164D01*
G01X0036588Y-014164D02*
G01X0036550Y-014183D01*
G01X0036550Y-014183D02*
G01X0036532Y-014202D01*
G01X0036532Y-014202D02*
G01X0036513Y-014239D01*
G01X0036513Y-014239D02*
G01X0036513Y-014296D01*
G01X0036513Y-014296D02*
G01X0036532Y-014333D01*
G01X0036532Y-014333D02*
G01X0036550Y-014352D01*
G01X0036550Y-014352D02*
G01X0036588Y-014371D01*
G01X0036588Y-014371D02*
G01X0036738Y-014371D01*
G01X0036138Y-014558D02*
G01X0036363Y-014558D01*
G01X0036250Y-014558D02*
G01X0036250Y-014164D01*
G01X0036250Y-014164D02*
G01X0036288Y-014221D01*
G01X0036288Y-014221D02*
G01X0036325Y-014258D01*
G01X0036325Y-014258D02*
G01X0036363Y-014277D01*
G01X0036007Y-014164D02*
G01X0035763Y-014164D01*
G01X0035763Y-014164D02*
G01X0035894Y-014314D01*
G01X0035894Y-014314D02*
G01X0035838Y-014314D01*
G01X0035838Y-014314D02*
G01X0035801Y-014333D01*
G01X0035801Y-014333D02*
G01X0035782Y-014352D01*
G01X0035782Y-014352D02*
G01X0035763Y-014389D01*
G01X0035763Y-014389D02*
G01X0035763Y-014483D01*
G01X0035763Y-014483D02*
G01X0035782Y-014521D01*
G01X0035782Y-014521D02*
G01X0035801Y-014539D01*
G01X0035801Y-014539D02*
G01X0035838Y-014558D01*
G01X0035838Y-014558D02*
G01X0035951Y-014558D01*
G01X0035951Y-014558D02*
G01X0035988Y-014539D01*
G01X0035988Y-014539D02*
G01X0036007Y-014521D01*
M02*
